<svg xmlns="http://www.w3.org/2000/svg" width="1920" height="1080" viewBox="0 0 1920 1080">
<rect x="0.0" y="0.0" width="1920.0" height="1080.0" rx="0" fill="#F5F7FA"/>
<text x="24.0" y="22.0" fill="#6B7F96" font-family="IBM Plex Sans, Segoe UI, sans-serif" font-size="12">Stories  /  Operations</text>
<text x="24.0" y="48.0" fill="#0F1B2D" font-family="IBM Plex Sans, Segoe UI, sans-serif" font-size="22" font-weight="600">Operations Story</text>
<text x="244.0" y="46.0" fill="#4A5D73" font-family="IBM Plex Sans, Segoe UI, sans-serif" font-size="13">Detect -&gt; prioritize by employee impact -&gt; resolve -&gt; automate</text>
<rect x="24.0" y="64.0" width="72.0" height="28.0" rx="8" fill="#1B6EF3" stroke="#1B6EF3"/><text x="36.0" y="82.0" fill="#fff" font-family="IBM Plex Sans, Segoe UI, sans-serif" font-size="11" font-weight="600">Now</text>
<rect x="104.0" y="64.0" width="87.0" height="28.0" rx="8" fill="#EEF2F7" stroke="#D8E0EA"/><text x="116.0" y="82.0" fill="#4A5D73" font-family="IBM Plex Sans, Segoe UI, sans-serif" font-size="11">Incidents</text>
<rect x="199.0" y="64.0" width="72.0" height="28.0" rx="8" fill="#EEF2F7" stroke="#D8E0EA"/><text x="211.0" y="82.0" fill="#4A5D73" font-family="IBM Plex Sans, Segoe UI, sans-serif" font-size="11">Alerts</text>
<rect x="279.0" y="64.0" width="94.0" height="28.0" rx="8" fill="#EEF2F7" stroke="#D8E0EA"/><text x="291.0" y="82.0" fill="#4A5D73" font-family="IBM Plex Sans, Segoe UI, sans-serif" font-size="11">Automation</text>
<rect x="381.0" y="64.0" width="72.0" height="28.0" rx="8" fill="#EEF2F7" stroke="#D8E0EA"/><text x="393.0" y="82.0" fill="#4A5D73" font-family="IBM Plex Sans, Segoe UI, sans-serif" font-size="11">SLA</text>
<rect x="461.0" y="64.0" width="108.0" height="28.0" rx="8" fill="#EEF2F7" stroke="#D8E0EA"/><text x="473.0" y="82.0" fill="#4A5D73" font-family="IBM Plex Sans, Segoe UI, sans-serif" font-size="11">Service Desk</text>
<rect x="577.0" y="64.0" width="72.0" height="28.0" rx="8" fill="#EEF2F7" stroke="#D8E0EA"/><text x="589.0" y="82.0" fill="#4A5D73" font-family="IBM Plex Sans, Segoe UI, sans-serif" font-size="11">Change</text>
<rect x="24.0" y="108.0" width="459.0" height="86.0" rx="10" fill="#FFFFFF" stroke="#D8E0EA"/><text x="38.0" y="130.0" fill="#6B7F96" font-family="IBM Plex Sans, Segoe UI, sans-serif" font-size="11">Impact score</text><text x="38.0" y="160.0" fill="#0F1B2D" font-family="IBM Plex Sans, Segoe UI, sans-serif" font-size="24" font-weight="600">41</text><text x="38.0" y="182.0" fill="#D97706" font-family="IBM Plex Sans, Segoe UI, sans-serif" font-size="11">Moderate · rising</text>
<rect x="495.0" y="108.0" width="459.0" height="86.0" rx="10" fill="#FFFFFF" stroke="#D8E0EA"/><text x="509.0" y="130.0" fill="#6B7F96" font-family="IBM Plex Sans, Segoe UI, sans-serif" font-size="11">Employees in blast</text><text x="509.0" y="160.0" fill="#0F1B2D" font-family="IBM Plex Sans, Segoe UI, sans-serif" font-size="24" font-weight="600">8.6k</text><text x="509.0" y="182.0" fill="#DC2626" font-family="IBM Plex Sans, Segoe UI, sans-serif" font-size="11">Across 3 Sev2+</text>
<rect x="966.0" y="108.0" width="459.0" height="86.0" rx="10" fill="#FFFFFF" stroke="#D8E0EA"/><text x="980.0" y="130.0" fill="#6B7F96" font-family="IBM Plex Sans, Segoe UI, sans-serif" font-size="11">MTTA / MTTR</text><text x="980.0" y="160.0" fill="#0F1B2D" font-family="IBM Plex Sans, Segoe UI, sans-serif" font-size="24" font-weight="600">6.2m / 48m</text><text x="980.0" y="182.0" fill="#0F9F6E" font-family="IBM Plex Sans, Segoe UI, sans-serif" font-size="11">improving</text>
<rect x="1437.0" y="108.0" width="459.0" height="86.0" rx="10" fill="#FFFFFF" stroke="#D8E0EA"/><text x="1451.0" y="130.0" fill="#6B7F96" font-family="IBM Plex Sans, Segoe UI, sans-serif" font-size="11">Auto-resolved 24h</text><text x="1451.0" y="160.0" fill="#0F1B2D" font-family="IBM Plex Sans, Segoe UI, sans-serif" font-size="24" font-weight="600">63%</text><text x="1451.0" y="182.0" fill="#0D9488" font-family="IBM Plex Sans, Segoe UI, sans-serif" font-size="11">+9 pts</text>
<rect x="24.0" y="206.0" width="1078.8" height="850.0" rx="10" fill="#FFFFFF" stroke="#D8E0EA"/><text x="40.0" y="232.0" fill="#0F1B2D" font-family="IBM Plex Sans, Segoe UI, sans-serif" font-size="14" font-weight="600">Impact-ranked queue (not volume)</text>
<rect x="40.0" y="250.0" width="1046.8" height="56.0" rx="8" fill="#EEF2F7" stroke="#D8E0EA"/>
<rect x="40.0" y="250.0" width="6.0" height="56.0" rx="0" fill="#DC2626"/>
<text x="60.0" y="272.0" fill="#0F1B2D" font-family="IBM Plex Sans, Segoe UI, sans-serif" font-size="13" font-weight="600">Sev2  CRM hang · Sales EMEA</text>
<text x="60.0" y="292.0" fill="#6B7F96" font-family="IBM Plex Sans, Segoe UI, sans-serif" font-size="11">3.1k emp · -2.1 DEX</text>
<text x="1002.8" y="282.0" fill="#1B6EF3" font-family="IBM Plex Sans, Segoe UI, sans-serif" font-size="12" font-weight="600">War room</text>
<rect x="40.0" y="314.0" width="1046.8" height="56.0" rx="8" fill="#EEF2F7" stroke="#D8E0EA"/>
<rect x="40.0" y="314.0" width="6.0" height="56.0" rx="0" fill="#DC2626"/>
<text x="60.0" y="336.0" fill="#0F1B2D" font-family="IBM Plex Sans, Segoe UI, sans-serif" font-size="13" font-weight="600">Sev2  IdP latency · APAC</text>
<text x="60.0" y="356.0" fill="#6B7F96" font-family="IBM Plex Sans, Segoe UI, sans-serif" font-size="11">1.8k emp · -0.8 DEX</text>
<text x="1002.8" y="346.0" fill="#1B6EF3" font-family="IBM Plex Sans, Segoe UI, sans-serif" font-size="12" font-weight="600">Investigate</text>
<rect x="40.0" y="378.0" width="1046.8" height="56.0" rx="8" fill="#EEF2F7" stroke="#D8E0EA"/>
<rect x="40.0" y="378.0" width="6.0" height="56.0" rx="0" fill="#D97706"/>
<text x="60.0" y="400.0" fill="#0F1B2D" font-family="IBM Plex Sans, Segoe UI, sans-serif" font-size="13" font-weight="600">Sev3  VPN reconnect · EMEA</text>
<text x="60.0" y="420.0" fill="#6B7F96" font-family="IBM Plex Sans, Segoe UI, sans-serif" font-size="11">920 emp</text>
<text x="1002.8" y="410.0" fill="#1B6EF3" font-family="IBM Plex Sans, Segoe UI, sans-serif" font-size="12" font-weight="600">Automate</text>
<rect x="40.0" y="442.0" width="1046.8" height="56.0" rx="8" fill="#EEF2F7" stroke="#D8E0EA"/>
<rect x="40.0" y="442.0" width="6.0" height="56.0" rx="0" fill="#D97706"/>
<text x="60.0" y="464.0" fill="#0F1B2D" font-family="IBM Plex Sans, Segoe UI, sans-serif" font-size="13" font-weight="600">Sev3  Wi-Fi HQ-3 roam</text>
<text x="60.0" y="484.0" fill="#6B7F96" font-family="IBM Plex Sans, Segoe UI, sans-serif" font-size="11">340 emp</text>
<text x="1002.8" y="474.0" fill="#1B6EF3" font-family="IBM Plex Sans, Segoe UI, sans-serif" font-size="12" font-weight="600">Assign</text>
<rect x="40.0" y="506.0" width="1046.8" height="56.0" rx="8" fill="#EEF2F7" stroke="#D8E0EA"/>
<rect x="40.0" y="506.0" width="6.0" height="56.0" rx="0" fill="#1B6EF3"/>
<text x="60.0" y="528.0" fill="#0F1B2D" font-family="IBM Plex Sans, Segoe UI, sans-serif" font-size="13" font-weight="600">Info  Patch ring 2 ready</text>
<text x="60.0" y="548.0" fill="#6B7F96" font-family="IBM Plex Sans, Segoe UI, sans-serif" font-size="11">12k devices</text>
<text x="1002.8" y="538.0" fill="#1B6EF3" font-family="IBM Plex Sans, Segoe UI, sans-serif" font-size="12" font-weight="600">Schedule</text>
<rect x="1114.8" y="206.0" width="781.2" height="850.0" rx="10" fill="#FFFFFF" stroke="#D8E0EA"/><rect x="1114.8" y="206.0" width="4" height="850.0" fill="#7C5CFC"/><text x="1130.8" y="232.0" fill="#0F1B2D" font-family="IBM Plex Sans, Segoe UI, sans-serif" font-size="14" font-weight="600">Resolution path</text>
<rect x="1130.8" y="254.0" width="749.2" height="52.0" rx="8" fill="#EEF2F7" stroke="#D8E0EA"/>
<text x="1142.8" y="274.0" fill="#7C5CFC" font-family="IBM Plex Sans, Segoe UI, sans-serif" font-size="12" font-weight="600">1. Confirm scope</text>
<text x="1142.8" y="294.0" fill="#4A5D73" font-family="IBM Plex Sans, Segoe UI, sans-serif" font-size="11">Sales EMEA · CRM Desktop · Win11</text>
<rect x="1130.8" y="314.0" width="749.2" height="52.0" rx="8" fill="#EEF2F7" stroke="#D8E0EA"/>
<text x="1142.8" y="334.0" fill="#7C5CFC" font-family="IBM Plex Sans, Segoe UI, sans-serif" font-size="12" font-weight="600">2. Correlate</text>
<text x="1142.8" y="354.0" fill="#4A5D73" font-family="IBM Plex Sans, Segoe UI, sans-serif" font-size="11">Hang &lt;-&gt; IdP spike 09:40 · CHG-441</text>
<rect x="1130.8" y="374.0" width="749.2" height="52.0" rx="8" fill="#EEF2F7" stroke="#D8E0EA"/>
<text x="1142.8" y="394.0" fill="#7C5CFC" font-family="IBM Plex Sans, Segoe UI, sans-serif" font-size="12" font-weight="600">3. Mitigate</text>
<text x="1142.8" y="414.0" fill="#4A5D73" font-family="IBM Plex Sans, Segoe UI, sans-serif" font-size="11">Feature flag · restart agent cohort</text>
<rect x="1130.8" y="434.0" width="749.2" height="52.0" rx="8" fill="#EEF2F7" stroke="#D8E0EA"/>
<text x="1142.8" y="454.0" fill="#7C5CFC" font-family="IBM Plex Sans, Segoe UI, sans-serif" font-size="12" font-weight="600">4. Automate</text>
<text x="1142.8" y="474.0" fill="#4A5D73" font-family="IBM Plex Sans, Segoe UI, sans-serif" font-size="11">Playbook: clear CRM cache @ login</text>
<rect x="1130.8" y="494.0" width="749.2" height="52.0" rx="8" fill="#EEF2F7" stroke="#D8E0EA"/>
<text x="1142.8" y="514.0" fill="#7C5CFC" font-family="IBM Plex Sans, Segoe UI, sans-serif" font-size="12" font-weight="600">5. Prove</text>
<text x="1142.8" y="534.0" fill="#4A5D73" font-family="IBM Plex Sans, Segoe UI, sans-serif" font-size="11">DEX Sales EMEA recover to &gt;=74</text>
</svg>
