<svg xmlns="http://www.w3.org/2000/svg" width="1366" height="900" viewBox="0 0 1366 900">
<rect width="1366" height="900" fill="#F5F7FA"/>
<rect x="0" y="0" width="248" height="900" fill="#FFFFFF" stroke="#D8E0EA"/>
<circle cx="36" cy="28" r="12" fill="#1B6EF3"/>
<path d="M30 28 L36 22 L42 28 L36 34 Z" fill="white" opacity="0.9"/>
<text x="56" y="33" fill="#0F1B2D" font-family="IBM Plex Sans, Segoe UI, sans-serif" font-size="16" font-weight="600">AetherDEX</text>
<text x="24" y="64" fill="#6B7F96" font-family="IBM Plex Sans, Segoe UI, sans-serif" font-size="11" font-weight="500">OVERVIEW</text>
<text x="28" y="86" fill="#4A5D73" font-family="IBM Plex Sans, Segoe UI, sans-serif" font-size="13" font-weight="400">Home</text>
<text x="24" y="130" fill="#6B7F96" font-family="IBM Plex Sans, Segoe UI, sans-serif" font-size="11" font-weight="500">EXECUTIVE</text>
<text x="28" y="152" fill="#4A5D73" font-family="IBM Plex Sans, Segoe UI, sans-serif" font-size="13" font-weight="400">DEX Index</text>
<text x="28" y="188" fill="#4A5D73" font-family="IBM Plex Sans, Segoe UI, sans-serif" font-size="13" font-weight="400">Risk &amp; Investment</text>
<text x="24" y="232" fill="#6B7F96" font-family="IBM Plex Sans, Segoe UI, sans-serif" font-size="11" font-weight="500">EXPERIENCE</text>
<text x="28" y="254" fill="#4A5D73" font-family="IBM Plex Sans, Segoe UI, sans-serif" font-size="13" font-weight="400">Overview</text>
<text x="28" y="290" fill="#4A5D73" font-family="IBM Plex Sans, Segoe UI, sans-serif" font-size="13" font-weight="400">Journeys</text>
<text x="28" y="326" fill="#4A5D73" font-family="IBM Plex Sans, Segoe UI, sans-serif" font-size="13" font-weight="400">Sentiment</text>
<text x="24" y="370" fill="#6B7F96" font-family="IBM Plex Sans, Segoe UI, sans-serif" font-size="11" font-weight="500">ENDPOINTS</text>
<text x="28" y="392" fill="#4A5D73" font-family="IBM Plex Sans, Segoe UI, sans-serif" font-size="13" font-weight="400">Fleet Health</text>
<rect x="12" y="412" width="224" height="32" rx="8" fill="#E8F1FE"/>
<rect x="12" y="418" width="3" height="20" rx="1.5" fill="#1B6EF3"/>
<text x="28" y="428" fill="#1B6EF3" font-family="IBM Plex Sans, Segoe UI, sans-serif" font-size="13" font-weight="600">Stability</text>
<text x="28" y="464" fill="#4A5D73" font-family="IBM Plex Sans, Segoe UI, sans-serif" font-size="13" font-weight="400">Lifecycle</text>
<text x="24" y="508" fill="#6B7F96" font-family="IBM Plex Sans, Segoe UI, sans-serif" font-size="11" font-weight="500">APPLICATIONS</text>
<text x="28" y="530" fill="#4A5D73" font-family="IBM Plex Sans, Segoe UI, sans-serif" font-size="13" font-weight="400">Portfolio</text>
<text x="28" y="566" fill="#4A5D73" font-family="IBM Plex Sans, Segoe UI, sans-serif" font-size="13" font-weight="400">App Detail</text>
<rect x="248" y="0" width="1118" height="56" fill="#FFFFFF" stroke="#D8E0EA"/>
<rect x="272" y="12" width="260" height="32" rx="8" fill="#FFFFFF" stroke="#D8E0EA"/>
<text x="288" y="33" fill="#6B7F96" font-family="IBM Plex Sans, Segoe UI, sans-serif" font-size="13">Search…</text>
<rect x="548" y="12" width="140" height="32" rx="8" fill="#FFFFFF" stroke="#D8E0EA"/>
<text x="564" y="33" fill="#4A5D73" font-family="IBM Plex Sans, Segoe UI, sans-serif" font-size="12">Enterprise ▾</text>
<rect x="700" y="12" width="110" height="32" rx="8" fill="#FFFFFF" stroke="#D8E0EA"/>
<text x="716" y="33" fill="#4A5D73" font-family="IBM Plex Sans, Segoe UI, sans-serif" font-size="12">Last 7 days ▾</text>
<circle cx="1326" cy="28" r="14" fill="#1B6EF3"/>
<text x="1319" y="32" fill="white" font-family="IBM Plex Sans, Segoe UI, sans-serif" font-size="11" font-weight="600">JH</text>
<circle cx="1286" cy="28" r="14" fill="#F0ECFF" stroke="#7C5CFC"/>
<text x="1280" y="32" fill="#7C5CFC" font-family="IBM Plex Sans, Segoe UI, sans-serif" font-size="11" font-weight="600">AI</text>
<text x="272" y="84" fill="#6B7F96" font-family="IBM Plex Sans, Segoe UI, sans-serif" font-size="12">Endpoints  /  Stability</text>
<text x="272" y="116" fill="#0F1B2D" font-family="IBM Plex Sans, Segoe UI, sans-serif" font-size="24" font-weight="600">Stability &amp; Performance</text>
<rect x="272.0" y="140" width="255.5" height="100" rx="10" fill="#FFFFFF" stroke="#D8E0EA" stroke-width="1"/>
<text x="288.0" y="166" fill="#6B7F96" font-family="IBM Plex Sans, Segoe UI, sans-serif" font-size="11" font-weight="500">Crash Rate</text>
<text x="288.0" y="200" fill="#0F1B2D" font-family="IBM Plex Sans, Segoe UI, sans-serif" font-size="26" font-weight="600">0.42</text>
<text x="288.0" y="224" fill="#3B82F6" font-family="IBM Plex Sans, Segoe UI, sans-serif" font-size="12">▼ 0.05</text>
<rect x="543.5" y="140" width="255.5" height="100" rx="10" fill="#FFFFFF" stroke="#D8E0EA" stroke-width="1"/>
<text x="559.5" y="166" fill="#6B7F96" font-family="IBM Plex Sans, Segoe UI, sans-serif" font-size="11" font-weight="500">Hang Rate</text>
<text x="559.5" y="200" fill="#0F1B2D" font-family="IBM Plex Sans, Segoe UI, sans-serif" font-size="26" font-weight="600">1.8</text>
<text x="559.5" y="224" fill="#D97706" font-family="IBM Plex Sans, Segoe UI, sans-serif" font-size="12">/100 hrs</text>
<rect x="815.0" y="140" width="255.5" height="100" rx="10" fill="#FFFFFF" stroke="#D8E0EA" stroke-width="1"/>
<text x="831.0" y="166" fill="#6B7F96" font-family="IBM Plex Sans, Segoe UI, sans-serif" font-size="11" font-weight="500">CPU Saturation</text>
<text x="831.0" y="200" fill="#0F1B2D" font-family="IBM Plex Sans, Segoe UI, sans-serif" font-size="26" font-weight="600">9.4%</text>
<text x="831.0" y="224" fill="#3B82F6" font-family="IBM Plex Sans, Segoe UI, sans-serif" font-size="12">▼ 0.8</text>
<rect x="1086.5" y="140" width="255.5" height="100" rx="10" fill="#FFFFFF" stroke="#D8E0EA" stroke-width="1"/>
<text x="1102.5" y="166" fill="#6B7F96" font-family="IBM Plex Sans, Segoe UI, sans-serif" font-size="11" font-weight="500">Memory Pressure</text>
<text x="1102.5" y="200" fill="#0F1B2D" font-family="IBM Plex Sans, Segoe UI, sans-serif" font-size="26" font-weight="600">6.1%</text>
<text x="1102.5" y="224" fill="#3B82F6" font-family="IBM Plex Sans, Segoe UI, sans-serif" font-size="12">devices</text>
<rect x="272" y="256" width="663.4" height="280" rx="10" fill="#FFFFFF" stroke="#D8E0EA" stroke-width="1"/>
<text x="292" y="284" fill="#0F1B2D" font-family="IBM Plex Sans, Segoe UI, sans-serif" font-size="15" font-weight="600">Stability Trend · Crash Rate</text>
<line x1="312" y1="316.0" x2="905.4" y2="316.0" stroke="#E4EAF2"/>
<line x1="312" y1="361.0" x2="905.4" y2="361.0" stroke="#E4EAF2"/>
<line x1="312" y1="406.0" x2="905.4" y2="406.0" stroke="#E4EAF2"/>
<line x1="312" y1="451.0" x2="905.4" y2="451.0" stroke="#E4EAF2"/>
<line x1="312" y1="496.0" x2="905.4" y2="496.0" stroke="#E4EAF2"/>
<path d="M 312.0,370.0 L 401.01,379.0 L 490.02,366.4 L 579.03,415.0 L 668.04,406.0 L 757.05,388.0 L 905.4,384.4" fill="none" stroke="#DC2626" stroke-width="2.5"/>
<text x="579.03" y="405.0" fill="#6B7F96" font-family="IBM Plex Sans, Segoe UI, sans-serif" font-size="10">Image 24.7</text>
<rect x="951.4" y="256" width="390.6" height="280" rx="10" fill="#FFFFFF" stroke="#D8E0EA" stroke-width="1"/>
<rect x="951.4" y="256" width="4" height="280" fill="#7C5CFC"/>
<text x="971.4" y="284" fill="#0F1B2D" font-family="IBM Plex Sans, Segoe UI, sans-serif" font-size="15" font-weight="600">Endpoint AI Insights</text>
<rect x="967.4" y="304" width="358.6" height="110" rx="10" fill="#F0ECFF" stroke="#7C5CFC" stroke-opacity="0.3"/>
<text x="979.4" y="330" fill="#0F1B2D" font-family="IBM Plex Sans, Segoe UI, sans-serif" font-size="13" font-weight="600">Crash regression after Image 24.7</text>
<text x="979.4" y="354" fill="#4A5D73" font-family="IBM Plex Sans, Segoe UI, sans-serif" font-size="12">Driver package correl. confidence 91%.</text>
<text x="979.4" y="374" fill="#4A5D73" font-family="IBM Plex Sans, Segoe UI, sans-serif" font-size="12">Impact ~2,400 devices in Engineering.</text>
</svg>