<svg xmlns="http://www.w3.org/2000/svg" width="1440" height="1080" viewBox="0 0 1440 1080">
<rect width="1440" height="1080" fill="#0B1220"/>
<rect x="0" y="0" width="248" height="1080" fill="#0E1626" stroke="#243148"/>
<circle cx="36" cy="28" r="12" fill="#3B82F6"/>
<path d="M30 28 L36 22 L42 28 L36 34 Z" fill="white" opacity="0.9"/>
<text x="56" y="33" fill="#E8EEF7" font-family="IBM Plex Sans, Segoe UI, sans-serif" font-size="16" font-weight="600">AetherDEX</text>
<text x="24" y="64" fill="#7E92AB" font-family="IBM Plex Sans, Segoe UI, sans-serif" font-size="11" font-weight="500">OVERVIEW</text>
<text x="28" y="86" fill="#A8B8CC" font-family="IBM Plex Sans, Segoe UI, sans-serif" font-size="13" font-weight="400">Home</text>
<text x="24" y="130" fill="#7E92AB" font-family="IBM Plex Sans, Segoe UI, sans-serif" font-size="11" font-weight="500">EXECUTIVE</text>
<text x="28" y="152" fill="#A8B8CC" font-family="IBM Plex Sans, Segoe UI, sans-serif" font-size="13" font-weight="400">DEX Index</text>
<text x="28" y="188" fill="#A8B8CC" font-family="IBM Plex Sans, Segoe UI, sans-serif" font-size="13" font-weight="400">Risk &amp; Investment</text>
<text x="24" y="232" fill="#7E92AB" font-family="IBM Plex Sans, Segoe UI, sans-serif" font-size="11" font-weight="500">EXPERIENCE</text>
<text x="28" y="254" fill="#A8B8CC" font-family="IBM Plex Sans, Segoe UI, sans-serif" font-size="13" font-weight="400">Overview</text>
<text x="28" y="290" fill="#A8B8CC" font-family="IBM Plex Sans, Segoe UI, sans-serif" font-size="13" font-weight="400">Journeys</text>
<text x="28" y="326" fill="#A8B8CC" font-family="IBM Plex Sans, Segoe UI, sans-serif" font-size="13" font-weight="400">Sentiment</text>
<text x="24" y="370" fill="#7E92AB" font-family="IBM Plex Sans, Segoe UI, sans-serif" font-size="11" font-weight="500">ENDPOINTS</text>
<text x="28" y="392" fill="#A8B8CC" font-family="IBM Plex Sans, Segoe UI, sans-serif" font-size="13" font-weight="400">Fleet Health</text>
<rect x="12" y="412" width="224" height="32" rx="8" fill="#142A4A"/>
<rect x="12" y="418" width="3" height="20" rx="1.5" fill="#3B82F6"/>
<text x="28" y="428" fill="#3B82F6" font-family="IBM Plex Sans, Segoe UI, sans-serif" font-size="13" font-weight="600">Stability</text>
<text x="28" y="464" fill="#A8B8CC" font-family="IBM Plex Sans, Segoe UI, sans-serif" font-size="13" font-weight="400">Lifecycle</text>
<text x="24" y="508" fill="#7E92AB" font-family="IBM Plex Sans, Segoe UI, sans-serif" font-size="11" font-weight="500">APPLICATIONS</text>
<text x="28" y="530" fill="#A8B8CC" font-family="IBM Plex Sans, Segoe UI, sans-serif" font-size="13" font-weight="400">Portfolio</text>
<text x="28" y="566" fill="#A8B8CC" font-family="IBM Plex Sans, Segoe UI, sans-serif" font-size="13" font-weight="400">App Detail</text>
<rect x="248" y="0" width="1192" height="56" fill="#0E1626" stroke="#243148"/>
<rect x="272" y="12" width="260" height="32" rx="8" fill="#162033" stroke="#243148"/>
<text x="288" y="33" fill="#7E92AB" font-family="IBM Plex Sans, Segoe UI, sans-serif" font-size="13">Search…</text>
<rect x="548" y="12" width="140" height="32" rx="8" fill="#162033" stroke="#243148"/>
<text x="564" y="33" fill="#A8B8CC" font-family="IBM Plex Sans, Segoe UI, sans-serif" font-size="12">Enterprise ▾</text>
<rect x="700" y="12" width="110" height="32" rx="8" fill="#162033" stroke="#243148"/>
<text x="716" y="33" fill="#A8B8CC" font-family="IBM Plex Sans, Segoe UI, sans-serif" font-size="12">Last 7 days ▾</text>
<circle cx="1400" cy="28" r="14" fill="#3B82F6"/>
<text x="1393" y="32" fill="white" font-family="IBM Plex Sans, Segoe UI, sans-serif" font-size="11" font-weight="600">JH</text>
<circle cx="1360" cy="28" r="14" fill="#1E1838" stroke="#A78BFA"/>
<text x="1354" y="32" fill="#A78BFA" font-family="IBM Plex Sans, Segoe UI, sans-serif" font-size="11" font-weight="600">AI</text>
<text x="272" y="84" fill="#7E92AB" font-family="IBM Plex Sans, Segoe UI, sans-serif" font-size="12">Endpoints  /  Stability</text>
<text x="272" y="116" fill="#E8EEF7" font-family="IBM Plex Sans, Segoe UI, sans-serif" font-size="24" font-weight="600">Stability &amp; Performance</text>
<rect x="272.0" y="140" width="268.0" height="100" rx="10" fill="#121A2B" stroke="#243148" stroke-width="1"/>
<text x="288.0" y="166" fill="#7E92AB" font-family="IBM Plex Sans, Segoe UI, sans-serif" font-size="11" font-weight="500">Crash Rate</text>
<text x="288.0" y="200" fill="#E8EEF7" font-family="IBM Plex Sans, Segoe UI, sans-serif" font-size="26" font-weight="600">0.42</text>
<text x="288.0" y="224" fill="#60A5FA" font-family="IBM Plex Sans, Segoe UI, sans-serif" font-size="12">▼ 0.05</text>
<rect x="564.0" y="140" width="268.0" height="100" rx="10" fill="#121A2B" stroke="#243148" stroke-width="1"/>
<text x="580.0" y="166" fill="#7E92AB" font-family="IBM Plex Sans, Segoe UI, sans-serif" font-size="11" font-weight="500">Hang Rate</text>
<text x="580.0" y="200" fill="#E8EEF7" font-family="IBM Plex Sans, Segoe UI, sans-serif" font-size="26" font-weight="600">1.8</text>
<text x="580.0" y="224" fill="#F59E0B" font-family="IBM Plex Sans, Segoe UI, sans-serif" font-size="12">/100 hrs</text>
<rect x="856.0" y="140" width="268.0" height="100" rx="10" fill="#121A2B" stroke="#243148" stroke-width="1"/>
<text x="872.0" y="166" fill="#7E92AB" font-family="IBM Plex Sans, Segoe UI, sans-serif" font-size="11" font-weight="500">CPU Saturation</text>
<text x="872.0" y="200" fill="#E8EEF7" font-family="IBM Plex Sans, Segoe UI, sans-serif" font-size="26" font-weight="600">9.4%</text>
<text x="872.0" y="224" fill="#60A5FA" font-family="IBM Plex Sans, Segoe UI, sans-serif" font-size="12">▼ 0.8</text>
<rect x="1148.0" y="140" width="268.0" height="100" rx="10" fill="#121A2B" stroke="#243148" stroke-width="1"/>
<text x="1164.0" y="166" fill="#7E92AB" font-family="IBM Plex Sans, Segoe UI, sans-serif" font-size="11" font-weight="500">Memory Pressure</text>
<text x="1164.0" y="200" fill="#E8EEF7" font-family="IBM Plex Sans, Segoe UI, sans-serif" font-size="26" font-weight="600">6.1%</text>
<text x="1164.0" y="224" fill="#60A5FA" font-family="IBM Plex Sans, Segoe UI, sans-serif" font-size="12">devices</text>
<rect x="272" y="264" width="709.28" height="280" rx="10" fill="#121A2B" stroke="#243148" stroke-width="1"/>
<text x="292" y="292" fill="#E8EEF7" font-family="IBM Plex Sans, Segoe UI, sans-serif" font-size="15" font-weight="600">Stability Trend · Crash Rate</text>
<line x1="312" y1="324.0" x2="951.28" y2="324.0" stroke="#1E2A40"/>
<line x1="312" y1="369.0" x2="951.28" y2="369.0" stroke="#1E2A40"/>
<line x1="312" y1="414.0" x2="951.28" y2="414.0" stroke="#1E2A40"/>
<line x1="312" y1="459.0" x2="951.28" y2="459.0" stroke="#1E2A40"/>
<line x1="312" y1="504.0" x2="951.28" y2="504.0" stroke="#1E2A40"/>
<path d="M 312.0,378.0 L 407.892,387.0 L 503.784,374.4 L 599.6759999999999,423.0 L 695.568,414.0 L 791.46,396.0 L 951.28,392.4" fill="none" stroke="#EF4444" stroke-width="2.5"/>
<text x="599.6759999999999" y="413.0" fill="#7E92AB" font-family="IBM Plex Sans, Segoe UI, sans-serif" font-size="10">Image 24.7</text>
<rect x="1005.28" y="264" width="410.72" height="280" rx="10" fill="#121A2B" stroke="#243148" stroke-width="1"/>
<rect x="1005.28" y="264" width="4" height="280" fill="#A78BFA"/>
<text x="1025.28" y="292" fill="#E8EEF7" font-family="IBM Plex Sans, Segoe UI, sans-serif" font-size="15" font-weight="600">Endpoint AI Insights</text>
<rect x="1021.28" y="312" width="378.72" height="110" rx="10" fill="#1E1838" stroke="#A78BFA" stroke-opacity="0.3"/>
<text x="1033.28" y="338" fill="#E8EEF7" font-family="IBM Plex Sans, Segoe UI, sans-serif" font-size="13" font-weight="600">Crash regression after Image 24.7</text>
<text x="1033.28" y="362" fill="#A8B8CC" font-family="IBM Plex Sans, Segoe UI, sans-serif" font-size="12">Driver package correl. confidence 91%.</text>
<text x="1033.28" y="382" fill="#A8B8CC" font-family="IBM Plex Sans, Segoe UI, sans-serif" font-size="12">Impact ~2,400 devices in Engineering.</text>
</svg>