<svg xmlns="http://www.w3.org/2000/svg" width="1440" height="1080" viewBox="0 0 1440 1080">
<rect width="1440" height="1080" fill="#F5F7FA"/>
<rect width="1440" height="1080" fill="#F5F7FA"/>
<rect x="0" y="0" width="248" height="1080" fill="#FFFFFF" stroke="#D8E0EA" stroke-width="1"/>
<circle cx="36" cy="28" r="12" fill="#1B6EF3"/>
<path d="M30 28 L36 22 L42 28 L36 34 Z" fill="white" opacity="0.9"/>
<text x="56" y="33" fill="#0F1B2D" font-family="IBM Plex Sans, Segoe UI, sans-serif" font-size="16" font-weight="600">AetherDEX</text>
<text x="24" y="64" fill="#6B7F96" font-family="IBM Plex Sans, Segoe UI, sans-serif" font-size="11" font-weight="500" letter-spacing="0.04em">OVERVIEW</text>
<text x="28" y="86" fill="#4A5D73" font-family="IBM Plex Sans, Segoe UI, sans-serif" font-size="13" font-weight="400">Home</text>
<text x="24" y="130" fill="#6B7F96" font-family="IBM Plex Sans, Segoe UI, sans-serif" font-size="11" font-weight="500" letter-spacing="0.04em">EXECUTIVE</text>
<rect x="12" y="136" width="224" height="32" rx="8" fill="#E8F1FE"/>
<rect x="12" y="142" width="3" height="20" rx="1.5" fill="#1B6EF3"/>
<text x="28" y="152" fill="#1B6EF3" font-family="IBM Plex Sans, Segoe UI, sans-serif" font-size="13" font-weight="600">DEX Index</text>
<text x="28" y="188" fill="#4A5D73" font-family="IBM Plex Sans, Segoe UI, sans-serif" font-size="13" font-weight="400">Risk &amp; Investment</text>
<text x="24" y="232" fill="#6B7F96" font-family="IBM Plex Sans, Segoe UI, sans-serif" font-size="11" font-weight="500" letter-spacing="0.04em">EXPERIENCE</text>
<text x="28" y="254" fill="#4A5D73" font-family="IBM Plex Sans, Segoe UI, sans-serif" font-size="13" font-weight="400">Overview</text>
<text x="28" y="290" fill="#4A5D73" font-family="IBM Plex Sans, Segoe UI, sans-serif" font-size="13" font-weight="400">Journeys</text>
<text x="28" y="326" fill="#4A5D73" font-family="IBM Plex Sans, Segoe UI, sans-serif" font-size="13" font-weight="400">Sentiment</text>
<text x="24" y="370" fill="#6B7F96" font-family="IBM Plex Sans, Segoe UI, sans-serif" font-size="11" font-weight="500" letter-spacing="0.04em">ENDPOINTS</text>
<text x="28" y="392" fill="#4A5D73" font-family="IBM Plex Sans, Segoe UI, sans-serif" font-size="13" font-weight="400">Fleet Health</text>
<text x="28" y="428" fill="#4A5D73" font-family="IBM Plex Sans, Segoe UI, sans-serif" font-size="13" font-weight="400">Stability</text>
<text x="28" y="464" fill="#4A5D73" font-family="IBM Plex Sans, Segoe UI, sans-serif" font-size="13" font-weight="400">Lifecycle</text>
<text x="24" y="508" fill="#6B7F96" font-family="IBM Plex Sans, Segoe UI, sans-serif" font-size="11" font-weight="500" letter-spacing="0.04em">APPLICATIONS</text>
<text x="28" y="530" fill="#4A5D73" font-family="IBM Plex Sans, Segoe UI, sans-serif" font-size="13" font-weight="400">Portfolio</text>
<rect x="248" y="0" width="1192" height="56" fill="#FFFFFF" stroke="#D8E0EA" stroke-width="1"/>
<rect x="272" y="12" width="280" height="32" rx="8" fill="#FFFFFF" stroke="#D8E0EA"/>
<text x="288" y="33" fill="#6B7F96" font-family="IBM Plex Sans, Segoe UI, sans-serif" font-size="13">Search people, devices, apps…</text>
<rect x="568" y="12" width="160" height="32" rx="8" fill="#FFFFFF" stroke="#D8E0EA"/>
<text x="584" y="33" fill="#4A5D73" font-family="IBM Plex Sans, Segoe UI, sans-serif" font-size="12">Enterprise ▾</text>
<rect x="740" y="12" width="120" height="32" rx="8" fill="#FFFFFF" stroke="#D8E0EA"/>
<text x="756" y="33" fill="#4A5D73" font-family="IBM Plex Sans, Segoe UI, sans-serif" font-size="12">Last 7 days ▾</text>
<rect x="872" y="12" width="100" height="32" rx="8" fill="#E8F1FE" stroke="#1B6EF3"/>
<text x="888" y="33" fill="#1B6EF3" font-family="IBM Plex Sans, Segoe UI, sans-serif" font-size="12" font-weight="500">vs WoW</text>
<circle cx="1320" cy="28" r="14" fill="#F0ECFF" stroke="#7C5CFC"/>
<text x="1314" y="32" fill="#7C5CFC" font-family="IBM Plex Sans, Segoe UI, sans-serif" font-size="11" font-weight="600">AI</text>
<circle cx="1360" cy="28" r="14" fill="#EEF2F7" stroke="#D8E0EA"/>
<text x="1354" y="32" fill="#D97706" font-family="IBM Plex Sans, Segoe UI, sans-serif" font-size="10" font-weight="700">3</text>
<circle cx="1400" cy="28" r="14" fill="#1B6EF3"/>
<text x="1393" y="32" fill="white" font-family="IBM Plex Sans, Segoe UI, sans-serif" font-size="11" font-weight="600">AC</text>
<text x="272" y="84" fill="#6B7F96" font-family="IBM Plex Sans, Segoe UI, sans-serif" font-size="12">Executive  /  DEX Index</text>
<text x="272" y="116" fill="#0F1B2D" font-family="IBM Plex Sans, Segoe UI, sans-serif" font-size="24" font-weight="600">Digital Experience Index</text>
<rect x="272.0" y="140" width="268.0" height="108" rx="10" fill="#FFFFFF" stroke="#D8E0EA" stroke-width="1"/>
<text x="292.0" y="168" fill="#6B7F96" font-family="IBM Plex Sans, Segoe UI, sans-serif" font-size="12" font-weight="500">Digital Experience Index</text>
<text x="292.0" y="204" fill="#0F1B2D" font-family="IBM Plex Sans, Segoe UI, sans-serif" font-size="28" font-weight="600">78.4</text>
<text x="292.0" y="228" fill="#0F9F6E" font-family="IBM Plex Sans, Segoe UI, sans-serif" font-size="12" font-weight="500">▲ 1.2 vs prior week</text>
<polyline points="440.0,208.0 455.0,204.0 470.0,206.0 485.0,200.0 500.0,202.0 515.0,196.0 530.0,198.0" fill="none" stroke="#1B6EF3" stroke-width="2" stroke-linecap="round"/>
<rect x="564.0" y="140" width="268.0" height="108" rx="10" fill="#FFFFFF" stroke="#D8E0EA" stroke-width="1"/>
<text x="584.0" y="168" fill="#6B7F96" font-family="IBM Plex Sans, Segoe UI, sans-serif" font-size="12" font-weight="500">Employees Impacted</text>
<text x="584.0" y="204" fill="#0F1B2D" font-family="IBM Plex Sans, Segoe UI, sans-serif" font-size="28" font-weight="600">4,286</text>
<text x="584.0" y="228" fill="#0F9F6E" font-family="IBM Plex Sans, Segoe UI, sans-serif" font-size="12" font-weight="500">▼ 312 vs prior week</text>
<polyline points="732.0,198.0 747.0,200.0 762.0,196.0 777.0,202.0 792.0,199.0 807.0,204.0 822.0,206.0" fill="none" stroke="#1B6EF3" stroke-width="2" stroke-linecap="round"/>
<rect x="856.0" y="140" width="268.0" height="108" rx="10" fill="#FFFFFF" stroke="#D8E0EA" stroke-width="1"/>
<text x="876.0" y="168" fill="#6B7F96" font-family="IBM Plex Sans, Segoe UI, sans-serif" font-size="12" font-weight="500">Experience Risk Index</text>
<text x="876.0" y="204" fill="#0F1B2D" font-family="IBM Plex Sans, Segoe UI, sans-serif" font-size="28" font-weight="600">34</text>
<text x="876.0" y="228" fill="#3B82F6" font-family="IBM Plex Sans, Segoe UI, sans-serif" font-size="12" font-weight="500">▼ 3 risk points</text>
<polyline points="1024.0,206.0 1039.0,203.0 1054.0,204.0 1069.0,200.0 1084.0,198.0 1099.0,196.0 1114.0,194.0" fill="none" stroke="#1B6EF3" stroke-width="2" stroke-linecap="round"/>
<rect x="1148.0" y="140" width="268.0" height="108" rx="10" fill="#FFFFFF" stroke="#D8E0EA" stroke-width="1"/>
<text x="1168.0" y="168" fill="#6B7F96" font-family="IBM Plex Sans, Segoe UI, sans-serif" font-size="12" font-weight="500">Telemetry Coverage</text>
<text x="1168.0" y="204" fill="#0F1B2D" font-family="IBM Plex Sans, Segoe UI, sans-serif" font-size="28" font-weight="600">92.1%</text>
<text x="1168.0" y="228" fill="#0F9F6E" font-family="IBM Plex Sans, Segoe UI, sans-serif" font-size="12" font-weight="500">▲ 0.4 pts</text>
<polyline points="1316.0,196.0 1331.0,198.0 1346.0,197.0 1361.0,199.0 1376.0,198.0 1391.0,200.0 1406.0,199.0" fill="none" stroke="#1B6EF3" stroke-width="2" stroke-linecap="round"/>
<rect x="272" y="272" width="663.52" height="280" rx="10" fill="#FFFFFF" stroke="#D8E0EA" stroke-width="1"/>
<text x="292" y="300" fill="#0F1B2D" font-family="IBM Plex Sans, Segoe UI, sans-serif" font-size="15" font-weight="600">DEX Trend · 30 days</text>
<text x="292" y="320" fill="#6B7F96" font-family="IBM Plex Sans, Segoe UI, sans-serif" font-size="11">Employee-weighted mean · Daily rollup · Threshold bands</text>
<rect x="312" y="342" width="583.52" height="25.5" fill="#0F9F6E" opacity="0.08"/>
<rect x="312" y="367.5" width="583.52" height="42.5" fill="#3B82F6" opacity="0.06"/>
<rect x="312" y="410.0" width="583.52" height="42.5" fill="#D97706" opacity="0.06"/>
<line x1="312" y1="342.0" x2="895.52" y2="342.0" stroke="#E4EAF2" stroke-width="1"/>
<line x1="312" y1="384.5" x2="895.52" y2="384.5" stroke="#E4EAF2" stroke-width="1"/>
<line x1="312" y1="427.0" x2="895.52" y2="427.0" stroke="#E4EAF2" stroke-width="1"/>
<line x1="312" y1="469.5" x2="895.52" y2="469.5" stroke="#E4EAF2" stroke-width="1"/>
<line x1="312" y1="512.0" x2="895.52" y2="512.0" stroke="#E4EAF2" stroke-width="1"/>
<path d="M 0.0,76.5 L 58.4,71.4 L 116.7,81.6 L 175.1,68.0 L 233.4,64.6 L 291.8,59.5 L 350.1,68.0 L 408.5,54.4 L 466.8,51.0 L 525.2,47.6 L 583.5,44.2 L 583.52,170 L 0,170 Z" transform="translate(312,342)" fill="#1B6EF3" opacity="0.15"/>
<path d="M 0.0,76.5 L 58.4,71.4 L 116.7,81.6 L 175.1,68.0 L 233.4,64.6 L 291.8,59.5 L 350.1,68.0 L 408.5,54.4 L 466.8,51.0 L 525.2,47.6 L 583.5,44.2" transform="translate(312,342)" fill="none" stroke="#1B6EF3" stroke-width="2.5"/>
<text x="304" y="346.0" fill="#6B7F96" font-family="IBM Plex Sans, Segoe UI, sans-serif" font-size="10" text-anchor="end">90</text>
<text x="304" y="388.5" fill="#6B7F96" font-family="IBM Plex Sans, Segoe UI, sans-serif" font-size="10" text-anchor="end">80</text>
<text x="304" y="431.0" fill="#6B7F96" font-family="IBM Plex Sans, Segoe UI, sans-serif" font-size="10" text-anchor="end">70</text>
<text x="304" y="473.5" fill="#6B7F96" font-family="IBM Plex Sans, Segoe UI, sans-serif" font-size="10" text-anchor="end">60</text>
<text x="304" y="516.0" fill="#6B7F96" font-family="IBM Plex Sans, Segoe UI, sans-serif" font-size="10" text-anchor="end">50</text>
<text x="312" y="530" fill="#6B7F96" font-family="IBM Plex Sans, Segoe UI, sans-serif" font-size="10">Jun 30</text>
<text x="895.52" y="530" fill="#6B7F96" font-family="IBM Plex Sans, Segoe UI, sans-serif" font-size="10" text-anchor="end">Jul 30</text>
<rect x="959.52" y="272" width="456.48" height="280" rx="10" fill="#FFFFFF" stroke="#D8E0EA" stroke-width="1"/>
<text x="979.52" y="300" fill="#0F1B2D" font-family="IBM Plex Sans, Segoe UI, sans-serif" font-size="15" font-weight="600">Experience Drivers</text>
<text x="979.52" y="320" fill="#6B7F96" font-family="IBM Plex Sans, Segoe UI, sans-serif" font-size="11">Contribution to DEX · Click to cross-filter</text>
<text x="979.52" y="342" fill="#4A5D73" font-family="IBM Plex Sans, Segoe UI, sans-serif" font-size="13">Endpoint</text>
<text x="1396.0" y="342" fill="#0F1B2D" font-family="IBM Plex Sans, Segoe UI, sans-serif" font-size="13" font-weight="600" text-anchor="end">76.2</text>
<rect x="979.52" y="350" width="416.48" height="8" rx="4" fill="#EEF2F7"/>
<rect x="979.52" y="350" width="317.35776000000004" height="8" rx="4" fill="#1B6EF3"/>
<text x="979.52" y="374" fill="#6B7F96" font-family="IBM Plex Sans, Segoe UI, sans-serif" font-size="10">Weight 30%</text>
<text x="979.52" y="392" fill="#4A5D73" font-family="IBM Plex Sans, Segoe UI, sans-serif" font-size="13">Application</text>
<text x="1396.0" y="392" fill="#0F1B2D" font-family="IBM Plex Sans, Segoe UI, sans-serif" font-size="13" font-weight="600" text-anchor="end">74.8</text>
<rect x="979.52" y="400" width="416.48" height="8" rx="4" fill="#EEF2F7"/>
<rect x="979.52" y="400" width="311.52704" height="8" rx="4" fill="#0D9488"/>
<text x="979.52" y="424" fill="#6B7F96" font-family="IBM Plex Sans, Segoe UI, sans-serif" font-size="10">Weight 30%</text>
<text x="979.52" y="442" fill="#4A5D73" font-family="IBM Plex Sans, Segoe UI, sans-serif" font-size="13">Network / Collab</text>
<text x="1396.0" y="442" fill="#0F1B2D" font-family="IBM Plex Sans, Segoe UI, sans-serif" font-size="13" font-weight="600" text-anchor="end">81.5</text>
<rect x="979.52" y="450" width="416.48" height="8" rx="4" fill="#EEF2F7"/>
<rect x="979.52" y="450" width="339.4312" height="8" rx="4" fill="#7C5CFC"/>
<text x="979.52" y="474" fill="#6B7F96" font-family="IBM Plex Sans, Segoe UI, sans-serif" font-size="10">Weight 20%</text>
<text x="979.52" y="492" fill="#4A5D73" font-family="IBM Plex Sans, Segoe UI, sans-serif" font-size="13">Sentiment</text>
<text x="1396.0" y="492" fill="#0F1B2D" font-family="IBM Plex Sans, Segoe UI, sans-serif" font-size="13" font-weight="600" text-anchor="end">79.1</text>
<rect x="979.52" y="500" width="416.48" height="8" rx="4" fill="#EEF2F7"/>
<rect x="979.52" y="500" width="329.43568" height="8" rx="4" fill="#EA580C"/>
<text x="979.52" y="524" fill="#6B7F96" font-family="IBM Plex Sans, Segoe UI, sans-serif" font-size="10">Weight 20%</text>
<rect x="272" y="576" width="411.84" height="480" rx="10" fill="#FFFFFF" stroke="#D8E0EA" stroke-width="1"/>
<text x="292" y="604" fill="#0F1B2D" font-family="IBM Plex Sans, Segoe UI, sans-serif" font-size="15" font-weight="600">Regional Experience</text>
<rect x="292.0" y="624" width="115.94666666666666" height="56" rx="8" fill="#0F9F6E" opacity="0.18" stroke="#0F9F6E" stroke-width="1"/>
<text x="304.0" y="648" fill="#4A5D73" font-family="IBM Plex Sans, Segoe UI, sans-serif" font-size="11">AMER</text>
<text x="304.0" y="666" fill="#0F1B2D" font-family="IBM Plex Sans, Segoe UI, sans-serif" font-size="16" font-weight="600">81.2</text>
<rect x="415.94666666666666" y="624" width="115.94666666666666" height="56" rx="8" fill="#3B82F6" opacity="0.18" stroke="#3B82F6" stroke-width="1"/>
<text x="427.94666666666666" y="648" fill="#4A5D73" font-family="IBM Plex Sans, Segoe UI, sans-serif" font-size="11">EMEA</text>
<text x="427.94666666666666" y="666" fill="#0F1B2D" font-family="IBM Plex Sans, Segoe UI, sans-serif" font-size="16" font-weight="600">76.8</text>
<rect x="539.8933333333333" y="624" width="115.94666666666666" height="56" rx="8" fill="#3B82F6" opacity="0.18" stroke="#3B82F6" stroke-width="1"/>
<text x="551.8933333333333" y="648" fill="#4A5D73" font-family="IBM Plex Sans, Segoe UI, sans-serif" font-size="11">APAC</text>
<text x="551.8933333333333" y="666" fill="#0F1B2D" font-family="IBM Plex Sans, Segoe UI, sans-serif" font-size="16" font-weight="600">72.4</text>
<rect x="292.0" y="688" width="115.94666666666666" height="56" rx="8" fill="#D97706" opacity="0.18" stroke="#D97706" stroke-width="1"/>
<text x="304.0" y="712" fill="#4A5D73" font-family="IBM Plex Sans, Segoe UI, sans-serif" font-size="11">LATAM</text>
<text x="304.0" y="730" fill="#0F1B2D" font-family="IBM Plex Sans, Segoe UI, sans-serif" font-size="16" font-weight="600">68.1</text>
<rect x="415.94666666666666" y="688" width="115.94666666666666" height="56" rx="8" fill="#0F9F6E" opacity="0.18" stroke="#0F9F6E" stroke-width="1"/>
<text x="427.94666666666666" y="712" fill="#4A5D73" font-family="IBM Plex Sans, Segoe UI, sans-serif" font-size="11">ANZ</text>
<text x="427.94666666666666" y="730" fill="#0F1B2D" font-family="IBM Plex Sans, Segoe UI, sans-serif" font-size="16" font-weight="600">84.0</text>
<rect x="539.8933333333333" y="688" width="115.94666666666666" height="56" rx="8" fill="#3B82F6" opacity="0.18" stroke="#3B82F6" stroke-width="1"/>
<text x="551.8933333333333" y="712" fill="#4A5D73" font-family="IBM Plex Sans, Segoe UI, sans-serif" font-size="11">INDIA</text>
<text x="551.8933333333333" y="730" fill="#0F1B2D" font-family="IBM Plex Sans, Segoe UI, sans-serif" font-size="16" font-weight="600">70.5</text>
<rect x="707.8399999999999" y="576" width="366.08" height="480" rx="10" fill="#FFFFFF" stroke="#D8E0EA" stroke-width="1"/>
<text x="727.8399999999999" y="604" fill="#0F1B2D" font-family="IBM Plex Sans, Segoe UI, sans-serif" font-size="15" font-weight="600">Business Unit Leaderboard</text>
<text x="727.8399999999999" y="628" fill="#6B7F96" font-family="IBM Plex Sans, Segoe UI, sans-serif" font-size="10">BUSINESS UNIT</text>
<text x="983.9199999999998" y="628" fill="#6B7F96" font-family="IBM Plex Sans, Segoe UI, sans-serif" font-size="10">DEX</text>
<text x="1053.9199999999998" y="628" fill="#6B7F96" font-family="IBM Plex Sans, Segoe UI, sans-serif" font-size="10" text-anchor="end">Δ</text>
<rect x="719.8399999999999" y="630" width="342.08" height="28" rx="4" fill="#EEF2F7" opacity="0.5"/>
<text x="727.8399999999999" y="644" fill="#4A5D73" font-family="IBM Plex Sans, Segoe UI, sans-serif" font-size="12">Engineering</text>
<text x="983.9199999999998" y="644" fill="#0F1B2D" font-family="IBM Plex Sans, Segoe UI, sans-serif" font-size="12" font-weight="600">82.6</text>
<text x="1053.9199999999998" y="644" fill="#0F9F6E" font-family="IBM Plex Sans, Segoe UI, sans-serif" font-size="12" text-anchor="end">+0.8</text>
<text x="727.8399999999999" y="672" fill="#4A5D73" font-family="IBM Plex Sans, Segoe UI, sans-serif" font-size="12">Sales</text>
<text x="983.9199999999998" y="672" fill="#0F1B2D" font-family="IBM Plex Sans, Segoe UI, sans-serif" font-size="12" font-weight="600">79.1</text>
<text x="1053.9199999999998" y="672" fill="#0F9F6E" font-family="IBM Plex Sans, Segoe UI, sans-serif" font-size="12" text-anchor="end">+1.4</text>
<rect x="719.8399999999999" y="686" width="342.08" height="28" rx="4" fill="#EEF2F7" opacity="0.5"/>
<text x="727.8399999999999" y="700" fill="#4A5D73" font-family="IBM Plex Sans, Segoe UI, sans-serif" font-size="12">Finance</text>
<text x="983.9199999999998" y="700" fill="#0F1B2D" font-family="IBM Plex Sans, Segoe UI, sans-serif" font-size="12" font-weight="600">77.3</text>
<text x="1053.9199999999998" y="700" fill="#DC2626" font-family="IBM Plex Sans, Segoe UI, sans-serif" font-size="12" text-anchor="end">-0.3</text>
<text x="727.8399999999999" y="728" fill="#4A5D73" font-family="IBM Plex Sans, Segoe UI, sans-serif" font-size="12">Customer Success</text>
<text x="983.9199999999998" y="728" fill="#0F1B2D" font-family="IBM Plex Sans, Segoe UI, sans-serif" font-size="12" font-weight="600">75.8</text>
<text x="1053.9199999999998" y="728" fill="#0F9F6E" font-family="IBM Plex Sans, Segoe UI, sans-serif" font-size="12" text-anchor="end">+0.5</text>
<rect x="719.8399999999999" y="742" width="342.08" height="28" rx="4" fill="#EEF2F7" opacity="0.5"/>
<text x="727.8399999999999" y="756" fill="#4A5D73" font-family="IBM Plex Sans, Segoe UI, sans-serif" font-size="12">Operations</text>
<text x="983.9199999999998" y="756" fill="#0F1B2D" font-family="IBM Plex Sans, Segoe UI, sans-serif" font-size="12" font-weight="600">71.2</text>
<text x="1053.9199999999998" y="756" fill="#DC2626" font-family="IBM Plex Sans, Segoe UI, sans-serif" font-size="12" text-anchor="end">-1.1</text>
<text x="727.8399999999999" y="784" fill="#4A5D73" font-family="IBM Plex Sans, Segoe UI, sans-serif" font-size="12">Marketing</text>
<text x="983.9199999999998" y="784" fill="#0F1B2D" font-family="IBM Plex Sans, Segoe UI, sans-serif" font-size="12" font-weight="600">74.0</text>
<text x="1053.9199999999998" y="784" fill="#0F9F6E" font-family="IBM Plex Sans, Segoe UI, sans-serif" font-size="12" text-anchor="end">+0.2</text>
<rect x="1097.9199999999998" y="576" width="318.0800000000001" height="480" rx="10" fill="#FFFFFF" stroke="#D8E0EA" stroke-width="1"/>
<rect x="1097.9199999999998" y="576" width="4" height="480" rx="2" fill="#7C5CFC"/>
<text x="1117.9199999999998" y="604" fill="#0F1B2D" font-family="IBM Plex Sans, Segoe UI, sans-serif" font-size="15" font-weight="600">AI Executive Insights</text>
<rect x="1113.9199999999998" y="624" width="286.0800000000001" height="88" rx="10" fill="#F0ECFF" stroke="#7C5CFC" stroke-opacity="0.35"/>
<text x="1125.9199999999998" y="646" fill="#0F1B2D" font-family="IBM Plex Sans, Segoe UI, sans-serif" font-size="13" font-weight="600">APAC login latency elevated</text>
<rect x="1125.9199999999998" y="656" width="52" height="18" rx="9" fill="#7C5CFC" opacity="0.2"/>
<text x="1133.9199999999998" y="669" fill="#7C5CFC" font-family="IBM Plex Sans, Segoe UI, sans-serif" font-size="10" font-weight="600">92%</text>
<text x="1187.9199999999998" y="669" fill="#6B7F96" font-family="IBM Plex Sans, Segoe UI, sans-serif" font-size="10">Impact 1,140 emp</text>
<text x="1125.9199999999998" y="692" fill="#4A5D73" font-family="IBM Plex Sans, Segoe UI, sans-serif" font-size="11">Endpoint login P90 +38% in APAC after IdP region failover.</text>
<text x="1125.9199999999998" y="706" fill="#4A5D73" font-family="IBM Plex Sans, Segoe UI, sans-serif" font-size="11"></text>
<rect x="1113.9199999999998" y="724" width="286.0800000000001" height="88" rx="10" fill="#F0ECFF" stroke="#7C5CFC" stroke-opacity="0.35"/>
<text x="1125.9199999999998" y="746" fill="#0F1B2D" font-family="IBM Plex Sans, Segoe UI, sans-serif" font-size="13" font-weight="600">Collab quality recovering</text>
<rect x="1125.9199999999998" y="756" width="52" height="18" rx="9" fill="#7C5CFC" opacity="0.2"/>
<text x="1133.9199999999998" y="769" fill="#7C5CFC" font-family="IBM Plex Sans, Segoe UI, sans-serif" font-size="10" font-weight="600">88%</text>
<text x="1187.9199999999998" y="769" fill="#6B7F96" font-family="IBM Plex Sans, Segoe UI, sans-serif" font-size="10">Impact EMEA</text>
<text x="1125.9199999999998" y="792" fill="#4A5D73" font-family="IBM Plex Sans, Segoe UI, sans-serif" font-size="11">A/V quality index +4.2 pts after WAN path change.</text>
<text x="1125.9199999999998" y="806" fill="#4A5D73" font-family="IBM Plex Sans, Segoe UI, sans-serif" font-size="11"></text>
</svg>